<svg width="20.000000" height="21.999878" viewBox="0 0 20 21.9999" fill="none" xmlns="http://www.w3.org/2000/svg" xmlns:xlink="http://www.w3.org/1999/xlink">
	<desc>
			Created with Pixso.
	</desc>
	<defs/>
	<path id="Vector" d="M19 15.09C19 18.18 19 19.73 18.26 20.41C17.91 20.73 17.47 20.93 17 20.99C16.01 21.1 14.86 20.08 12.55 18.04C11.53 17.14 11.02 16.69 10.43 16.57C10.14 16.51 9.85 16.51 9.56 16.57C8.97 16.69 8.46 17.14 7.44 18.04C5.13 20.08 3.98 21.1 2.99 20.99C2.52 20.93 2.08 20.73 1.73 20.41C1 19.73 1 18.18 1 15.09L1 10.09C1 5.8 1 3.66 2.31 2.33C3.63 1 5.75 1 10 1C14.24 1 16.36 1 17.68 2.33C19 3.66 19 5.8 19 10.09L19 15.09Z" stroke="#37D8A7" stroke-opacity="1.000000" stroke-width="2.000000"/>
</svg>
