<svg width="41.000000" height="36.559570" viewBox="0 0 41 36.5596" fill="none" xmlns="http://www.w3.org/2000/svg" xmlns:xlink="http://www.w3.org/1999/xlink">
	<desc>
			Created with Pixso.
	</desc>
	<defs/>
	<path id="Vector" d="M41 1.17C41 0.52 40.46 0 39.79 0C39.13 0 38.59 0.52 38.59 1.17C38.59 2.45 37.46 3.53 36.11 3.53L30.69 3.53C27.6 1.99 24.08 1.17 20.5 1.17C16.91 1.17 13.39 1.99 10.3 3.53L4.89 3.53C3.54 3.53 2.4 2.45 2.4 1.17C2.4 0.52 1.86 0 1.2 0C0.53 0 0 0.52 0 1.17L0 4.71C0 6.9 0.88 8.96 2.48 10.52C0.85 13.14 0 16 0 18.86C0 28.62 9.19 36.55 20.5 36.55C31.8 36.55 41 28.62 41 18.86C41 16 40.14 13.15 38.52 10.54C40.05 9.04 41 6.98 41 4.71L41 1.17ZM20.5 3.53C22.41 3.53 24.3 3.79 26.09 4.29C24.75 4.82 23.52 5.61 22.47 6.65C21.67 7.44 21.01 8.33 20.5 9.29C20 8.33 19.34 7.44 18.54 6.65C17.48 5.61 16.25 4.82 14.9 4.29C16.7 3.79 18.58 3.53 20.5 3.53ZM20.5 23.11C20.94 23.84 21.51 24.5 22.16 25.06L20.5 28.14L18.83 25.06C19.48 24.5 20.05 23.84 20.5 23.11ZM13.29 24.76C9.98 24.76 7.28 22.12 7.28 18.86C7.28 15.61 9.98 12.97 13.29 12.97C16.6 12.97 19.29 15.61 19.29 18.86C19.29 22.12 16.6 24.76 13.29 24.76ZM21.7 18.86C21.7 18.77 21.7 18.68 21.7 18.58C21.71 18.53 21.72 18.47 21.72 18.41L21.72 18.39C21.96 15.36 24.55 12.97 27.7 12.97C31.01 12.97 33.71 15.61 33.71 18.86C33.71 22.12 31.01 24.76 27.7 24.76C24.39 24.76 21.7 22.12 21.7 18.86ZM2.42 5.24C3.17 5.66 4.02 5.89 4.89 5.89L10.57 5.89L10.58 5.89L10.89 5.89C13.13 5.89 15.25 6.75 16.84 8.31C18.15 9.6 18.97 11.24 19.22 13.02C17.86 11.69 16.05 10.82 14.04 10.64C13.95 10.62 13.86 10.61 13.76 10.61L8.5 10.61C7.19 10.61 5.97 10.21 4.97 9.52C4.91 9.45 4.84 9.38 4.75 9.32C4.7 9.29 4.64 9.25 4.58 9.23C3.38 8.25 2.57 6.83 2.42 5.24ZM38.59 18.86C38.59 27.32 30.47 34.2 20.5 34.2C10.52 34.2 2.4 27.32 2.4 18.86C2.4 16.5 3.09 14.13 4.41 11.94C5.36 12.45 6.39 12.78 7.47 12.91C5.88 14.41 4.88 16.53 4.88 18.86C4.88 23.42 8.65 27.12 13.29 27.12C14.55 27.12 15.74 26.85 16.81 26.36L19.43 31.21C19.64 31.6 20.05 31.84 20.5 31.84C20.94 31.84 21.35 31.6 21.56 31.21L24.18 26.36C25.25 26.85 26.44 27.12 27.7 27.12C32.34 27.12 36.11 23.42 36.11 18.86C36.11 16.53 35.11 14.41 33.52 12.91C34.62 12.78 35.65 12.45 36.58 11.95C37.9 14.14 38.59 16.51 38.59 18.86ZM36.39 9.25C36.34 9.27 36.29 9.3 36.24 9.33C36.17 9.38 36.1 9.45 36.04 9.51C35.04 10.2 33.82 10.61 32.51 10.61L27.24 10.61C27.15 10.61 27.06 10.62 26.97 10.64C24.96 10.81 23.15 11.68 21.79 13C22.04 11.23 22.86 9.6 24.17 8.31C25.76 6.75 27.87 5.89 30.12 5.89L30.39 5.89C30.39 5.89 30.4 5.89 30.4 5.89C30.4 5.89 30.4 5.89 30.41 5.89L36.11 5.89C36.98 5.89 37.83 5.67 38.57 5.24C38.42 6.85 37.6 8.27 36.39 9.25Z" fill="#7653FC" fill-opacity="1.000000" fill-rule="nonzero"/>
</svg>
